<svg xmlns="http://www.w3.org/2000/svg" viewBox="0 0 48 48"><g data-name="2-Ig"><rect width="46" height="46" x="1" y="1" fill="#a263e5" rx="8" ry="8"/><path fill="#f1f2f2" d="M47 9a8 8 0 0 0-8-8H9a8 8 0 0 0-8 8v6h46Z"/><g data-name="&lt;Group&gt;"><circle cx="35" cy="8" r="2" fill="#a4b0c0"/><path fill="#a4b0c0" d="M24 15a11 11 0 1 1-11 11 10.994 10.994 0 0 1 11-11Zm7 11a7 7 0 1 0-7 7 6.995 6.995 0 0 0 7-7Z"/><circle cx="24" cy="26" r="7" fill="#f1f2f2"/><path fill="#474c54" d="M39 0H9a9.01 9.01 0 0 0-9 9v6a1 1 0 0 0 1 1h10a1 1 0 0 0 0-2H2V9a7.008 7.008 0 0 1 7-7h30a7.008 7.008 0 0 1 7 7v5h-9a1 1 0 0 0 0 2h10a1 1 0 0 0 1-1V9a9.01 9.01 0 0 0-9-9zm8 18a1 1 0 0 0-1 1v20a7.008 7.008 0 0 1-7 7H9a7.008 7.008 0 0 1-7-7V19a1 1 0 0 0-2 0v20a9.01 9.01 0 0 0 9 9h30a9.01 9.01 0 0 0 9-9V19a1 1 0 0 0-1-1z"/><path fill="#474c54" d="M12 26a12 12 0 1 0 12-12 12.014 12.014 0 0 0-12 12Zm22 0a10 10 0 1 1-10-10 10.011 10.011 0 0 1 10 10Z"/><path fill="#474c54" d="M16 26a8 8 0 1 0 8-8 8.009 8.009 0 0 0-8 8zm14 0a6 6 0 1 1-6-6 6.007 6.007 0 0 1 6 6zm5-15a3 3 0 1 0-3-3 3 3 0 0 0 3 3zm0-4a1 1 0 1 1-1 1 1 1 0 0 1 1-1z"/></g></g></svg>