<?xml version="1.0" encoding="UTF-8"?>
<!-- Generated by Pixelmator Pro 2.4.5 -->
<svg width="402" height="415" viewBox="0 0 402 415" xmlns="http://www.w3.org/2000/svg" xmlns:xlink="http://www.w3.org/1999/xlink">
    <g id="Group">
        <path id="Path" fill="#9c7348" stroke="none" d="M 29 207.333344 L 29 388 L 200.333344 388 L 371.666656 388 L 371.399994 207.600006 L 371 27.333313 L 200.066681 26.93335 L 29 26.666687 L 29 207.333344 Z M 312.733337 88.799988 C 317.799988 90.799988 321.533325 98 323 108.266663 L 323.933319 114.666656 L 302.466675 114.666656 L 281 114.666656 L 281 110.266663 C 281.133331 101.066681 289.133331 89.866638 297.666656 86.93335 C 301.933319 85.466675 305.799988 86 312.733337 88.799988 Z M 217.933319 90 C 224.600006 92.799988 231.266663 97.866669 235 102.799988 C 239.266663 108.666656 246.333344 122.666656 246.333344 125.333344 C 246.333344 126.533325 247 128.133331 247.799988 128.933319 C 249.666656 130.799988 249.666656 154 247.799988 159.333344 C 246.466675 163.066681 246.466675 163.200012 248.333344 160.799988 C 249.399994 159.333344 250.333344 157.866669 250.333344 157.333344 C 250.333344 155.866669 258.200012 152 261.266663 152 C 263.399994 152 267 154.266663 271 158 C 274.466675 161.333344 278.333344 164.533325 279.399994 165.200012 C 281.266663 166.266663 281.666656 175.733337 282.600006 246.666656 C 283.266663 290.933319 283.533325 327.200012 283.266663 327.466675 C 283 327.733337 244.466675 328 197.533325 328 L 112.333328 328.133331 L 111.53334 282.399994 C 110.333328 213.333344 110.199997 153.600006 111.399994 152.933319 C 111.933334 152.533325 115.399994 151.866669 119 151.466675 C 122.733337 150.933319 127.266663 150.266663 129.133331 149.866669 C 132.066681 149.333344 133.133331 150 135.666656 154 L 138.600006 158.799988 L 141.533325 156.133331 C 145.399994 152.399994 146.600006 152.533325 153.399994 157.466675 C 164.333344 165.466675 172.466675 166.666656 174.733337 160.799988 C 175.266663 159.600006 177 158.133331 178.866669 157.333344 C 180.866669 156.666656 182.733337 154.266663 183.799988 151.466675 C 184.733337 148.799988 186.466675 146.666656 187.399994 146.666656 C 188.466675 146.666656 192.466675 150 196.200012 154 C 199.933319 158 203.933319 161.333344 205 161.333344 C 206.200012 161.333344 209.133331 159.733337 211.666656 157.600006 C 214.200012 155.600006 217.933319 153.200012 219.933319 152.133331 C 223.266663 150.399994 223.666656 150.666656 229.933319 156.933319 C 235.666656 162.933319 240.733337 166.666656 243 166.666656 C 243.533325 166.666656 241.933319 165.066681 239.533325 163.066681 C 237.266663 161.066681 233 156.533325 230.200012 152.933319 C 225.933319 147.600006 225 145.333344 225 140.399994 C 225 130.266663 221.266663 120 215.399994 114.133331 C 210.333344 108.933319 209.799988 108.666656 200.333344 108.266663 L 190.600006 107.733337 L 184.733337 113.066681 C 177.533325 119.866669 174.600006 127.733337 173.533325 144.133331 C 172.200012 162.799988 171 164 158.866669 158.133331 C 149 153.333344 148.066681 150.666656 150.866669 134.933319 C 152.066681 127.733337 154.733337 118.933319 156.733337 114.799988 C 163.533325 101.066681 177 90.533325 191 88 C 197.799988 86.666687 212.466675 87.866638 217.933319 90 Z M 323.666656 119.200012 C 323.666656 120.266663 323 128.799988 322.200012 138 C 321.399994 147.333344 320.066681 177.200012 319.266663 204.399994 L 317.666656 254 L 304.200012 254.399994 L 290.733337 254.799988 L 289.133331 248.799988 C 288.333344 245.466675 287.666656 238.133331 287.666656 232.266663 C 287.666656 218.133331 284.600006 177.466675 282.333344 161.333344 C 281.666656 156.533325 281 144.666656 281 134.933319 L 281 117.333344 L 302.333344 117.333344 C 320.066681 117.333344 323.666656 117.600006 323.666656 119.200012 Z M 317.399994 258.133331 C 317.799988 258.666656 317.399994 260.933319 316.466675 263.200012 C 315.533325 265.466675 314.333344 269.733337 313.799988 272.666656 C 313.266663 275.466675 311 281.866669 308.866669 286.533325 C 305.399994 294 305.133331 295.733337 306.466675 298.266663 C 309.666656 304.266663 302.600006 311.200012 298.466675 306.133331 C 297.399994 304.933319 297.399994 304 298.200012 303.466675 C 298.866669 302.933319 299.799988 303.200012 300.333344 304 C 300.733337 304.666656 301.666656 305.333344 302.466675 305.333344 C 304.466675 305.333344 303.799988 297.466675 301.533325 294 C 299.133331 290.399994 290.333344 264.666656 290.333344 261.333344 C 290.333344 260.133331 290.733337 258.666656 291.266663 258.266663 C 292.333344 257.066681 316.333344 257.066681 317.399994 258.133331 Z"/>
    </g>
</svg>
