<?xml version="1.0" encoding="UTF-8"?>
<!-- Generated by Pixelmator Pro 2.4.5 -->
<svg width="666" height="666" viewBox="0 0 666 666" xmlns="http://www.w3.org/2000/svg" xmlns:xlink="http://www.w3.org/1999/xlink">
    <g id="Group">
        <path id="Path" fill="#9c7348" stroke="none" d="M 164 265.333344 L 164 446 L 335.333344 446 L 506.666656 446 L 506.399994 265.600006 L 506 85.333313 L 335.066681 84.93335 L 164 84.666687 L 164 265.333344 Z M 447.733337 146.799988 C 452.799988 148.799988 456.533325 156 458 166.266663 L 458.933319 172.666656 L 437.466675 172.666656 L 416 172.666656 L 416 168.266663 C 416.133331 159.066681 424.133331 147.866638 432.666656 144.93335 C 436.933319 143.466675 440.799988 144 447.733337 146.799988 Z M 352.933319 148 C 359.600006 150.799988 366.266663 155.866669 370 160.799988 C 374.266663 166.666656 381.333344 180.666656 381.333344 183.333344 C 381.333344 184.533325 382 186.133331 382.799988 186.933319 C 384.666656 188.799988 384.666656 212 382.799988 217.333344 C 381.466675 221.066681 381.466675 221.200012 383.333344 218.799988 C 384.399994 217.333344 385.333344 215.866669 385.333344 215.333344 C 385.333344 213.866669 393.200012 210 396.266663 210 C 398.399994 210 402 212.266663 406 216 C 409.466675 219.333344 413.333344 222.533325 414.399994 223.200012 C 416.266663 224.266663 416.666656 233.733337 417.600006 304.666656 C 418.266663 348.933319 418.533325 385.200012 418.266663 385.466675 C 418 385.733337 379.466675 386 332.533325 386 L 247.333328 386.133331 L 246.53334 340.399994 C 245.333328 271.333344 245.199997 211.600006 246.399994 210.933319 C 246.933334 210.533325 250.399994 209.866669 254 209.466675 C 257.733337 208.933319 262.266663 208.266663 264.133331 207.866669 C 267.066681 207.333344 268.133331 208 270.666656 212 L 273.600006 216.799988 L 276.533325 214.133331 C 280.399994 210.399994 281.600006 210.533325 288.399994 215.466675 C 299.333344 223.466675 307.466675 224.666656 309.733337 218.799988 C 310.266663 217.600006 312 216.133331 313.866669 215.333344 C 315.866669 214.666656 317.733337 212.266663 318.799988 209.466675 C 319.733337 206.799988 321.466675 204.666656 322.399994 204.666656 C 323.466675 204.666656 327.466675 208 331.200012 212 C 334.933319 216 338.933319 219.333344 340 219.333344 C 341.200012 219.333344 344.133331 217.733337 346.666656 215.600006 C 349.200012 213.600006 352.933319 211.200012 354.933319 210.133331 C 358.266663 208.399994 358.666656 208.666656 364.933319 214.933319 C 370.666656 220.933319 375.733337 224.666656 378 224.666656 C 378.533325 224.666656 376.933319 223.066681 374.533325 221.066681 C 372.266663 219.066681 368 214.533325 365.200012 210.933319 C 360.933319 205.600006 360 203.333344 360 198.399994 C 360 188.266663 356.266663 178 350.399994 172.133331 C 345.333344 166.933319 344.799988 166.666656 335.333344 166.266663 L 325.600006 165.733337 L 319.733337 171.066681 C 312.533325 177.866669 309.600006 185.733337 308.533325 202.133331 C 307.200012 220.799988 306 222 293.866669 216.133331 C 284 211.333344 283.066681 208.666656 285.866669 192.933319 C 287.066681 185.733337 289.733337 176.933319 291.733337 172.799988 C 298.533325 159.066681 312 148.533325 326 146 C 332.799988 144.666687 347.466675 145.866638 352.933319 148 Z M 458.666656 177.200012 C 458.666656 178.266663 458 186.799988 457.200012 196 C 456.399994 205.333344 455.066681 235.200012 454.266663 262.399994 L 452.666656 312 L 439.200012 312.399994 L 425.733337 312.799988 L 424.133331 306.799988 C 423.333344 303.466675 422.666656 296.133331 422.666656 290.266663 C 422.666656 276.133331 419.600006 235.466675 417.333344 219.333344 C 416.666656 214.533325 416 202.666656 416 192.933319 L 416 175.333344 L 437.333344 175.333344 C 455.066681 175.333344 458.666656 175.600006 458.666656 177.200012 Z M 452.399994 316.133331 C 452.799988 316.666656 452.399994 318.933319 451.466675 321.200012 C 450.533325 323.466675 449.333344 327.733337 448.799988 330.666656 C 448.266663 333.466675 446 339.866669 443.866669 344.533325 C 440.399994 352 440.133331 353.733337 441.466675 356.266663 C 444.666656 362.266663 437.600006 369.200012 433.466675 364.133331 C 432.399994 362.933319 432.399994 362 433.200012 361.466675 C 433.866669 360.933319 434.799988 361.200012 435.333344 362 C 435.733337 362.666656 436.666656 363.333344 437.466675 363.333344 C 439.466675 363.333344 438.799988 355.466675 436.533325 352 C 434.133331 348.399994 425.333344 322.666656 425.333344 319.333344 C 425.333344 318.133331 425.733337 316.666656 426.266663 316.266663 C 427.333344 315.066681 451.333344 315.066681 452.399994 316.133331 Z"/>
        <path id="path1" fill="#9c7348" stroke="none" d="M 261.333344 504.399994 C 261.333344 515.333313 260.933319 533.333313 260.399994 544.400024 L 259.600006 564.666687 L 263.600006 564.666687 L 267.600006 564.666687 L 266.933319 550.666687 C 266.399994 538 266.533325 536.666687 268.666656 536.666687 C 276.133331 536.666687 284.266663 547.06665 286.133331 558.93335 C 286.933319 564.133301 287.333344 564.666687 290.666656 564.666687 C 294.266663 564.666687 294.399994 564.533325 293.733337 558.93335 C 292.666656 550 288 541.866699 281.600006 537.599976 L 275.866669 533.733337 L 281.733337 528.666687 C 285.333344 525.466675 288.133331 521.599976 289.066681 518.266663 C 291.333344 510.666687 291.200012 509.733337 287.200012 510.266663 C 284.266663 510.533325 283.333344 511.733337 282 516.266663 C 279.466675 524.666687 271.066681 533.866699 267.733337 531.866699 C 267.066681 531.466675 266.666656 524.799988 266.666656 516.93335 C 266.666656 496.533325 265.333344 484.666687 263.200012 484.666687 C 261.733337 484.666687 261.333344 488.666687 261.333344 504.399994 Z"/>
        <path id="path2" fill="#9c7348" stroke="none" d="M 534.666687 504.399994 C 534.666687 515.333313 534.266663 533.333313 533.733337 544.400024 L 532.93335 564.666687 L 536.93335 564.666687 L 540.93335 564.666687 L 540.266663 550.666687 C 539.733337 538 539.866638 536.666687 542 536.666687 C 549.466675 536.666687 557.599976 547.06665 559.466675 558.93335 C 560.266663 564.133301 560.666687 564.666687 564 564.666687 C 567.599976 564.666687 567.733337 564.533325 567.06665 558.93335 C 566 550 561.333313 541.866699 554.93335 537.599976 L 549.200012 533.733337 L 555.06665 528.666687 C 558.666687 525.466675 561.466675 521.599976 562.400024 518.266663 C 564.666687 510.666687 564.533325 509.733337 560.533325 510.266663 C 557.599976 510.533325 556.666687 511.733337 555.333313 516.266663 C 552.799988 524.666687 544.400024 533.866699 541.06665 531.866699 C 540.400024 531.466675 540 524.799988 540 516.93335 C 540 496.533325 538.666687 484.666687 536.533325 484.666687 C 535.06665 484.666687 534.666687 488.666687 534.666687 504.399994 Z"/>
        <path id="path3" fill="#9c7349" stroke="none" d="M 367.200012 492.133331 C 364.399994 492.799988 364.399994 493.06665 364.933319 523.06665 C 365.200012 539.733337 365.733337 555.866699 366.133331 558.93335 C 366.799988 564.133301 367.066681 564.533325 372 565.333313 C 381.866669 567.06665 394.399994 563.333313 397.333344 558.133301 C 400.133331 552.93335 398.933319 547.333313 394 542.400024 C 391.466675 539.866699 389.333344 537.333313 389.333344 536.799988 C 389.333344 536.266663 391.466675 533.733337 394.133331 531.200012 C 407.066681 518.93335 406.933319 501.600006 393.866669 494.799988 C 388.799988 492.133331 374 490.666687 367.200012 492.133331 Z M 387.866669 497.333313 C 398.399994 502.666687 396.933319 521.200012 385.066681 532.133301 C 380.799988 536.133301 374.133331 540.666687 372.666656 540.666687 C 372.266663 540.666687 372 530.400024 372 518 L 372 495.333313 L 378 495.333313 C 381.466675 495.333313 385.866669 496.266663 387.866669 497.333313 Z M 388.666656 544.799988 C 393.466675 554 388.533325 562 378.133331 562 C 374.799988 562 371.733337 561.333313 371.333344 560.533325 C 370.799988 559.733337 370.799988 556 371.200012 552.133301 C 372.133331 545.466675 372.399994 544.93335 377.733337 542.400024 C 384.266663 539.200012 386 539.599976 388.666656 544.799988 Z"/>
        <path id="path4" fill="#9c7348" stroke="none" d="M 90.666664 494.533325 C 90.666664 495.733337 93.466667 496.533325 100 497.200012 L 109.333336 498.133331 L 108.400002 531.466675 L 107.599998 564.666687 L 111.866669 564.666687 L 116.133331 564.666687 L 115.199997 531.333313 L 114.26667 498 L 123.73333 498 C 132.399994 498 133.333328 497.733337 133.333328 495.333313 C 133.333328 492.799988 132.399994 492.666687 112 492.666687 C 94.800003 492.666687 90.666664 493.06665 90.666664 494.533325 Z"/>
        <path id="path5" fill="#9c7348" stroke="none" d="M 154.666672 510.399994 C 149.066666 513.200012 147.733337 517.466675 148.399994 530.666687 C 149.333328 548.93335 155.866669 563.466675 164.133331 565.333313 C 171.866669 567.200012 179.866669 555.06665 182.800003 536.93335 C 186.133331 516.93335 181.333328 508.666687 166.266663 508.666687 C 161.733337 508.666687 156.53334 509.466675 154.666672 510.399994 Z M 172.133331 513.866699 C 174.666672 515.866699 175.333328 517.866699 175.733337 525.06665 C 176.666672 540.533325 171.199997 562 166.133331 562 C 160.53334 562 156 547.333313 156 529.200012 C 156 517.466675 156.133331 516.666687 159.46666 514.133301 C 163.866669 510.666687 168.133331 510.533325 172.133331 513.866699 Z"/>
        <path id="path6" fill="#9c7348" stroke="none" d="M 209.333328 510.399994 C 203.733337 513.200012 202.399994 517.466675 203.066666 530.666687 C 204 548.93335 210.53334 563.466675 218.800003 565.333313 C 226.53334 567.200012 234.53334 555.06665 237.46666 536.93335 C 240.800003 516.93335 236 508.666687 220.933334 508.666687 C 216.399994 508.666687 211.199997 509.466675 209.333328 510.399994 Z M 226.800003 513.866699 C 229.333328 515.866699 230 517.866699 230.399994 525.06665 C 231.333328 540.533325 225.866669 562 220.800003 562 C 215.199997 562 210.666672 547.333313 210.666672 529.200012 C 210.666672 517.466675 210.800003 516.666687 214.133331 514.133301 C 218.53334 510.666687 222.800003 510.533325 226.800003 513.866699 Z"/>
        <path id="path7" fill="#9c7348" stroke="none" d="M 429.333344 510.399994 C 423.733337 513.200012 422.399994 517.466675 423.066681 530.666687 C 424 548.93335 430.533325 563.466675 438.799988 565.333313 C 446.533325 567.200012 454.533325 555.06665 457.466675 536.93335 C 460.799988 516.93335 456 508.666687 440.933319 508.666687 C 436.399994 508.666687 431.200012 509.466675 429.333344 510.399994 Z M 446.799988 513.866699 C 449.333344 515.866699 450 517.866699 450.399994 525.06665 C 451.333344 540.533325 445.866669 562 440.799988 562 C 435.200012 562 430.666656 547.333313 430.666656 529.200012 C 430.666656 517.466675 430.799988 516.666687 434.133331 514.133301 C 438.533325 510.666687 442.799988 510.533325 446.799988 513.866699 Z"/>
        <path id="path8" fill="#9c7348" stroke="none" d="M 482.666656 510.399994 C 477.066681 513.200012 475.733337 517.466675 476.399994 530.666687 C 477.333344 548.93335 483.866669 563.466675 492.133331 565.333313 C 499.866669 567.200012 507.866669 555.06665 510.799988 536.93335 C 514.133362 516.93335 509.333344 508.666687 494.266663 508.666687 C 489.733337 508.666687 484.533325 509.466675 482.666656 510.399994 Z M 500.133331 513.866699 C 502.666656 515.866699 503.333344 517.866699 503.733337 525.06665 C 504.666656 540.533325 499.200012 562 494.133331 562 C 488.533325 562 484 547.333313 484 529.200012 C 484 517.466675 484.133331 516.666687 487.466675 514.133301 C 491.866669 510.666687 496.133331 510.533325 500.133331 513.866699 Z"/>
        <path id="path9" fill="#9c7348" stroke="none" d="M 313.333344 530.533325 C 313.333344 533.06665 317.600006 534 331.066681 534 C 341.733337 534 342.666656 533.733337 342.666656 531.333313 C 342.666656 528.799988 341.733337 528.666687 328 528.666687 C 316.399994 528.666687 313.333344 529.06665 313.333344 530.533325 Z"/>
    </g>
</svg>
